<?xml version="1.0" encoding="utf-8"?>
<!-- Generator: Adobe Illustrator 25.2.0, SVG Export Plug-In . SVG Version: 6.00 Build 0)  -->
<svg version="1.1" id="Layer_1" xmlns="http://www.w3.org/2000/svg" xmlns:xlink="http://www.w3.org/1999/xlink" x="0px" y="0px"
	 viewBox="0 0 270.91 139.93" style="enable-background:new 0 0 270.91 139.93;" xml:space="preserve">
<style type="text/css">
	.st0{fill:#361514;}
	.st1{fill:#F9A14F;}
	.st2{font-family:'Anton';}
	.st3{font-size:6.9654px;}
	.st4{fill:#FFFFFF;stroke:#231F20;stroke-width:0.25;stroke-miterlimit:10;}
</style>
<g>
	<path class="st0" d="M211.71,97.17H12c-6.6,0-12-5.4-12-12v-67.9c0-6.6,5.4-12,12-12h199.71c6.6,0,12,5.4,12,12v67.9
		C223.71,91.77,218.31,97.17,211.71,97.17z"/>
	<text transform="matrix(1 0 0 1 9.8044 15.8797)" class="st1 st2 st3">#371211</text>
</g>
<g>
	<path class="st4" d="M230.99,114.38H31.27c-6.6,0-12-5.4-12-12v-67.9c0-6.6,5.4-12,12-12h199.71c6.6,0,12,5.4,12,12v67.9
		C242.99,108.98,237.59,114.38,230.99,114.38z"/>
	<text transform="matrix(1 0 0 1 29.1603 37.9119)" class="st1 st2 st3">#FFFFFF</text>
</g>
<g>
	<path class="st1" d="M255.13,136.77H55.42c-6.6,0-12-5.4-12-12v-67.9c0-6.6,5.4-12,12-12h199.71c6.6,0,12,5.4,12,12v67.9
		C267.13,131.37,261.73,136.77,255.13,136.77z"/>
	<text transform="matrix(1 0 0 1 54.7603 59.2821)" class="st0 st2 st3">#371211</text>
</g>
</svg>
