<?xml version="1.0" encoding="utf-8"?>
<!-- Generator: Adobe Illustrator 25.2.0, SVG Export Plug-In . SVG Version: 6.00 Build 0)  -->
<svg version="1.1" id="Layer_1" xmlns="http://www.w3.org/2000/svg" xmlns:xlink="http://www.w3.org/1999/xlink" x="0px" y="0px"
	 viewBox="0 0 434.26 453.37" style="enable-background:new 0 0 434.26 453.37;" xml:space="preserve">
<style type="text/css">
	.st0{fill:#3A3A3A;}
	.st1{fill:#EEEEEE;}
	.st2{fill:#FFFFFF;}
	.st3{fill:#6C6C6C;}
	.st4{fill:none;stroke:#000000;stroke-miterlimit:10;}
</style>
<g>
	<path class="st0" d="M430,349.78c-6.41-8.75-8.49-19.06-11.79-28.94c-1.23-3.69-1.64-7.64-2.76-11.37
		c-0.66-2.2-2.05-4.16-2.96-6.29c-0.68-1.58-1.53-3.25-1.59-4.91c-0.2-5.49-3.19-8.91-7.7-11.37c-1.93-1.05-3.87-1.91-3.75-4.71
		c0.03-0.63-1.17-1.51-1.99-1.92c-1.79-0.89-2.15-2.05-1.38-3.86c1.03-2.43,0.63-2.87-1.95-3.45c-0.72-0.16-1.62-1.06-1.82-1.8
		c-1.86-6.55-3.94-13.06-5.2-19.73c-0.81-4.28-2.81-7.69-4.94-11.28c-2.96-4.99-5.4-10.3-8.13-15.43c-0.79-1.5-0.58-2.77,0.61-3.82
		c2.28-2,2.36-4.52,0.95-6.73c-2.75-4.35-3.33-9.29-4.77-14.02c-1.08-3.54-2.86-7.08-7.01-8.31c-0.32-0.09-0.68-0.35-0.94-0.27
		c-4.21,1.22-6.9-1.99-10.24-3.38c-3.27-1.37-6.69-2.38-10.04-3.56c-9.58-3.36-19.6-2.96-29.53-3.57
		c-7.26-0.45-14.64-0.27-21.65-2.84c-1.14-0.41-2.48-0.56-3.7-0.47c-4.99,0.35-8.89-2-12.78-4.68c-1.89-1.3-4-2.35-6.12-3.24
		c-2.86-1.21-3.45-4.12-1.21-6.31c0.87-0.85,1.48-1.99,2.17-3.01c1.49-2.2,3.49-2.93,6.05-2.21c0.5,0.14,1.06,0.02,1.84-0.54
		c-0.74-0.52-1.43-1.12-2.22-1.55c-4.11-2.26-4.67-4.12-2.55-8.28c1.03-1.99,1.94-4.05,2.88-6.08c-0.05-0.64-0.09-1.28-0.14-1.91
		c-0.19-0.07-0.38-0.13-0.57-0.2c-1.98,3.85-4.08,7.64-5.87,11.58c-0.65,1.42-0.38,3.23-0.82,4.78c-0.52,1.83-0.9,3.88-3.34,4.38
		c-0.38,0.08-0.69,0.82-0.91,1.32c-1,2.34-1.96,4.7-2.94,7.05c-0.06,0.15-0.14,0.34-0.27,0.41c-2.52,1.51-5.05,3-7.58,4.49
		c-0.21,0.13-0.46,0.19-0.67,0.32c-4.33,2.82-4.41,2.82-8.21-0.32c0.54-0.65,1.08-1.31,1.88-2.27c-2.59-1.32-3.86-3.4-3.54-6.47
		c-0.95,0.35-1.54,0.56-2.23,0.82c0.79-2,2.15-3.9,2.1-5.77c-0.05-1.77-1.57-3.51-2.63-5.63c-0.98,0.14-2.38,0.4-3.79,0.51
		c-0.54,0.05-1.2-0.11-1.66-0.4c-4.16-2.67-8.25-5.43-12.42-8.05c-1.31-0.82-2.76-1.53-4.25-1.9c-3.08-0.78-5.22-3.35-4.75-6.36
		c0.15-1.01,0.69-2.08,1.37-2.83c0.53-0.59,1.56-0.72,2.37-1.05c0.22,0.72,0.54,1.43,0.65,2.17c0.26,1.69,0.4,3.4,0.6,5.16
		c2.02-0.76,2.31-2.12,1.99-8.83c2.17,0.18,4.3-2.2,6.49,0.1c0.38,0.39,0.9,0.75,1.08,1.22c0.7,1.94,2.49,2.76,4.5,1.96
		c1.91-0.76,2.36-2.13,1.3-4.22c-0.59-1.18-1.26-2.34-1.95-3.47c-1.05-1.7-2.2-2.82-4.61-2.52c-3.17,0.39-7.05-3.66-7.28-7.01
		c-0.09-1.45-0.39-2.88-0.48-4.33c-0.04-0.64,0.12-1.32,0.33-1.94c0.91-2.69,1.89-5.36,2.82-8.05c0.75-2.16,1.25-4.44,2.25-6.47
		c1.75-3.56,2.11-7.8,5.19-10.68c0.49-0.47,1.5-1.15,1.75-0.97c0.84,0.57,1.58,1.41,2.1,2.3c0.57,0.96,0.67,2.21,1.28,3.14
		c1.45,2.23,2.19,4.56,2.09,7.26c-0.04,1.05,0.64,2.16,1.14,3.17c0.69,1.41,1.35,2.88,2.34,4.07c2.21,2.65,4.39,5.44,7.06,7.56
		c1,0.79,3.37,0.01,5.07-0.3c2.53-0.46,5.02-1.15,8.12-1.88c-2.47-1.16-4.29-2.01-6.11-2.86c0.11-0.3,0.22-0.6,0.33-0.89
		c3.64-0.69,7.07,0.12,10.43,1.63c0.75,0.34,1.7,1.01,2.24,0.79c0.77-0.32,1.9-1.66,1.74-1.99c-0.99-1.97-2-4.12-3.59-5.57
		c-2.53-2.32-5.55-4.11-8.31-6.2c-0.79-0.6-2.09-1.65-1.95-2.15c0.37-1.33,0.73-2.91,2.93-2.95c3.35-0.05,6.69-0.56,10.04-0.88
		c0.03,0.2,0.07,0.4,0.11,0.61c-0.69,0.19-1.38,0.38-2.63,0.74c1.2,0.37,1.85,0.58,2.66,0.83c-0.48,0.27-0.87,0.48-1.25,0.69
		c2.87,0.58,3.23-2.7,5.77-3.2c-4.41-5.25-8.73-9.34-15.95-9.15c-5.1,0.14-10.3-0.41-14.78-3.46c-0.27-0.18-0.61-0.26-0.93-0.33
		c-0.24-0.05-0.49-0.01-0.67-0.01c-0.52,1.45-0.84,2.93-1.55,4.17c-1.35,2.33-2.21-0.24-3.69-0.6c-0.32,0.84-0.48,1.82-1.02,2.52
		c-0.43,0.54-1.32,0.73-2,1.08c-0.26-0.52-0.61-1.02-0.76-1.57c-0.46-1.71-0.81-3.44-1.29-5.14c-0.09-0.34-0.51-0.72-0.86-0.82
		c-1.15-0.31-2.34-0.51-3.67-0.79c0.05,0.33,0.2,0.78,0.16,1.21c-0.04,0.44-0.26,1.22-0.43,1.23c-0.5,0.02-1.21-0.12-1.49-0.47
		c-0.55-0.7-1.03-1.55-1.25-2.41c-0.6-2.29-1.36-4.07-4.29-4.2c-0.74-0.03-1.39-2-2.29-3.4c-0.4,0.29-1.01,0.87-1.73,1.23
		c-0.53,0.27-1.19,0.25-1.79,0.36c-0.09-0.58-0.24-1.15-0.25-1.73c-0.04-1.36-0.07-2.72,0-4.08c0.03-0.65,0.11-1.7,0.47-1.85
		c2.25-0.94,4.58-1.67,7.08-2.54c0.18,1,0.3,1.66,0.48,2.65c1.48-0.67,2.71-1.59,4.01-1.71c1.28-0.12,2.63,0.57,4.18,0.96
		c1.05-1.49,2.25-3.19,3.55-5.02c0.26,0.27,0.71,0.74,1.48,1.55c0.97-3.66-1.21-7.39,1.29-10.71c1.86,1.62,3.63,3.16,5.39,4.69
		c2.3-2.59,3.8-2.61,6.83-0.49c0.93,0.65,2.09,1.01,3.18,1.37c3.28,1.08,6.55,2.16,9.87,3.08c0.69,0.2,1.66-0.1,2.34-0.46
		c2.84-1.48,4.82-1.4,7.17,0.6c1.23,1.04,2.16,2.56,3.54,3.28c2.44,1.28,3.09,3.47,3.88,5.76c0.54,1.53,1.43,2.94,2.18,4.4
		c2.21,4.34,1.31,9.06,1.67,13.63c0.09,1.07-0.06,2.25,0.35,3.18c2.13,4.99,1.25,10.03,0.68,15.13c-0.74,6.52-1.27,13.06-1.87,19.59
		c-0.03,0.4,0.09,0.8,0.27,1.34c0.7-3.49,3.7-2.53,5.24-3.03c1.14-4.03,2.17-7.71,3.23-11.38c0.95-3.26,1.89-6.53,2.95-9.76
		c0.27-0.83,0.99-1.51,1.43-2.3c0.3-0.56,0.8-1.3,0.63-1.76c-1.13-3.26,1.41-5.58,2.04-8.38c0.68-3.01,1.79-5.93,2.71-8.89
		c0.57-1.83,1.31-3.62,1.66-5.48c0.24-1.25,1.68-2.68-0.18-3.95c-0.24-0.17-0.05-1.07,0.06-1.62c0.06-0.27,0.59-0.61,0.54-0.71
		c-1.66-2.78,1.08-7.14-3.36-9.07c-0.75-0.32-0.8-2.39-1.06-3.68c-0.09-0.44,0.39-1.07,0.21-1.4c-1.49-2.75-0.35-5.46,0-8.19
		c0.06-0.48,0.13-1.04-0.04-1.48c-2.45-6.46-3.69-13.68-9.12-18.46c-2.5-2.19-6.21-3.02-9.38-4.46c-0.52-0.23-1.35-0.26-1.56-0.65
		c-2.17-3.97-6.01-5.74-9.71-7.88c-3.51-2.02-6.77-4.47-10.93-4.84c-5.72-0.5-11.43-1.42-17.21-0.11c-1.25,0.28-2.84-0.92-4.16-1.77
		c1.74-0.12,3.5-1.99,5.1,0.39c0.23,0.34,2.04-0.37,3.17-1.08c-0.84-0.18-1.68-0.52-2.52-0.5c-3.8,0.12-7.5-0.18-10.99-1.91
		c-0.5-0.25-1.28,0-1.92,0.09c-0.82,0.11-1.77,0.64-2.42,0.38c-4.69-1.88-8.59,1.51-12.94,1.82c-1.97,0.14-3.88,0.9-5.85,1.19
		c-3.3,0.47-5,2.53-6.03,5.48c-0.26,0.73-0.92,1.8-1.45,1.84c-1.18,0.08-2.4-0.4-3.85-0.7c-0.09,0.34-0.29,1.07-0.36,1.33
		c-4.39,1.24-8.77,1.87-12.56,3.72c-3.73,1.81-6.87,4.84-10.72,7.67c1.66,0.15,2.6,0.24,4.36,0.4c-1.99,2.51-3.63,4.39-5.06,6.43
		c-1.4,2-2.64,4.12-3.78,6.27c-0.24,0.46,0.24,1.29-0.05,1.85c-0.1,1.15-0.2,2.31-0.32,3.61c-1.44,0.47-1.73,1.45-0.19,3.04
		c-2.56,0.54-2.97,2.6-3.23,4.6c-0.68,5.22-1.44,10.44-1.77,15.68c-0.52,8.12-0.79,16.26-0.99,24.39c-0.04,1.58-0.3,2.2-1.88,1.97
		c-2.2-0.32-4.4-0.62-6.6-0.95c-4.3-0.63-6.74,0.52-8.06,4.7c-0.78,2.44-1.07,5.3-0.63,7.8c1.23,6.95,2.86,13.84,4.53,20.7
		c1.04,4.25,3.5,6.14,7.92,6.1c2.58-0.02,3.13,1.05,3.34,3.39c0.5,5.45,1.2,10.89,2.12,16.29c0.78,4.58,1.72,9.01,0.71,13.79
		c-1.04,4.91-1.15,10.02-1.62,14.57c-4.14,1.55-8.06,2.75-11.73,4.45c-4.21,1.96-8.2,4.38-12.3,6.57c-3.69,1.99-7.69,1.6-11.65,1.42
		c-0.41-0.02-0.81-0.28-1.21-0.26c-9.2,0.25-18.46-0.12-27.43,2.46c-2.19,0.63-4.21,1.81-6.34,2.67
		c-8.42,3.43-16.89,6.75-25.27,10.29c-2.95,1.25-5.64,3.11-8.54,4.5c-1.2,0.57-2.65,0.96-3.96,0.88c-2.65-0.14-4.7,0.29-6.59,2.52
		c-1.74,2.05-3.14,4.48-5.81,5.84c-1.13,0.58-1.74,2.85-1.94,4.43c-0.36,2.9,0.06,5.91-0.41,8.78c-0.43,2.57-1.7,5-2.43,7.53
		c-0.37,1.29-0.24,2.71-0.55,4.02c-0.5,2.14-1.01,4.31-1.79,6.35c-2.21,5.73-4.72,11.35-6.8,17.12c-1.05,2.91-1.29,6.09-2.16,9.08
		c-0.57,1.95-1.71,3.72-2.41,5.64c-0.84,2.33-1.45,4.75-2.23,7.11c-0.52,1.55-1.17,3.06-1.74,4.59c-0.52,1.39-1.22,2.74-1.47,4.18
		c-1.31,7.48-4.44,14.15-8.58,20.45c-1.3,1.98-2.05,4.34-2.94,6.58C2.53,328,1.26,331.24,0,334.48
		c24.7,36.84,59.3,67.25,100.31,87.9c1.07-0.87,2.13-1.76,3.09-2.75c0.62-0.63,0.57-1.9,0.83-2.89c-0.9-0.1-1.81-0.16-2.69-0.34
		c-0.73-0.14-1.53-0.27-2.12-0.66c-0.89-0.59-1.51-1.65-2.45-2.09c-2.52-1.17-2.68-2.77-1.33-4.94c1.4-2.24,2.71-4.53,4.17-6.99
		c-2.2-0.48-1.52-1.85-0.7-3.22c2.82-4.68,5.36-9.55,8.56-13.96c4.32-5.94,9.99-10.52,17.57-11.13c3.65-0.3,7.58,0.69,11.12,1.89
		c3.68,1.25,7.2,2.21,11.14,1.9c1.97-0.16,4.07,0.56,6.03,1.14c5.64,1.65,11.25,3.43,16.87,5.16c1.57,0.48,2.24-0.01,2.81-1.69
		c5.19-15.25,9.14-30.77,10.21-46.93c0.25-0.02,0.51-0.03,0.76-0.05c1.3,6.47,2.64,12.92,3.89,19.39
		c2.02,10.45,3.99,20.91,5.96,31.36c0.5,2.62,0.97,5.24,1.42,7.86c0.26,1.47,0.96,2.77,2.57,2.39c1.5-0.35,1.44-1.51,1.19-3.12
		c-0.56-3.66-1.12-7.53-0.52-11.12c0.94-5.5-0.89-10.64-1.09-15.96c-0.51-13.63-1.5-27.23-2.11-40.86
		c-0.4-8.87-0.47-17.77-0.7-26.65c-0.23-8.64,0.14-17.16,4.78-25.01c-2.77-1.26-5.57-2.09-7.84-3.69c-2.26-1.59-3.97-3.96-6.09-6.16
		c1.06-1,2.12-2.17,3.33-3.12c2.49-1.96,3.84-4.39,4.36-7.57c0.34-2.03,1.69-3.88,2.66-5.96c4.89,2.7,0.81,6.04,1.29,9.11
		c0.9,0.39,2.01,0.88,3.31,1.45c-0.43,0.8-0.76,1.43-1.12,2.12c0.02,0.07,0.03,0.29,0.13,0.35c1.85,1.12,1.26,2.05-0.22,2.89
		c-3.09,1.77-3.2,3.06-0.49,5.32c0.82,0.69,1.56,1.48,2.48,2.35c4.4-5.02,3.33-10.8,1.88-16.93c5.32,3.42,8.32,7.72,9.97,13.09
		c0.56,1.83,1.62,3.51,2.43,5.23c1.16-0.36,1.84-0.58,3.02-0.95c-0.1,1.24-0.03,2.18-0.27,3.05c-0.53,1.92-1.22,3.79-1.83,5.7
		c-1.03,3.24,1.69,6.31,5.06,5.7c0.53-0.09,1.07-0.19,1.57-0.39c3.8-1.48,3.8-1.49,3.44,2.59c-3.18,1.01-5.4,4.81-4.46,7.16
		c4.44-4.57,8.97-9.23,13.5-13.89c0.37,0.16,0.73,0.32,1.09,0.48c0,1.06,0.13,2.15-0.02,3.19c-1.31,8.71-2.78,17.4-4,26.11
		c-1.36,9.72-2.72,19.44-3.7,29.2c-0.83,8.19-1.22,16.42-1.58,24.64c-0.1,2.18,0.66,4.4,1.01,6.61c0.15,0.97,0.59,2.09,0.28,2.91
		c-0.48,1.29-1.26,2.92-2.35,3.41c-0.84,0.36-2.55-0.59-3.53-1.38c-1.96-1.58-2.56-3.8-2.86-6.33c-0.26-2.18-1.47-4.25-2.27-6.36
		c-0.23,0.03-0.45,0.07-0.68,0.1v20.21c-0.18,0.01-0.36,0.01-0.54,0.01c-0.58-5.9-1.16-11.8-1.74-17.7
		c-0.24,0.01-0.48,0.02-0.71,0.03c0.11,2.56,0.25,5.12,0.34,7.68c0.05,1.24,0.22,2.53-0.02,3.73c-0.17,0.84-0.93,1.56-1.42,2.33
		c-0.77-0.61-1.7-1.1-2.27-1.86c-0.51-0.69-0.63-1.66-0.92-2.51c-0.28,0.11-0.55,0.22-0.82,0.33c0.54,3.84,2.07,7.23,5.14,9.9
		c-0.04,0.22-0.09,0.45-0.14,0.68c-1.85,0.25-3.69,0.51-6.04,0.83c0.93,0.97,1.69,1.64,2.3,2.43c0.41,0.53,0.59,1.22,0.87,1.83
		c-0.59,0.17-1.18,0.42-1.79,0.48c-1.55,0.15-3.17-0.01-4.65,0.37c-1.74,0.45-2.27,1.77-1.5,3.4h4.59c-2.78,1.6-4.29,5-8.13,4.67
		c-1.36-0.12-1.47,1.65-0.76,2.97c1.48,2.75,1.44,2.73-1.41,4.15c-3.01,1.51-5.99,3.1-9.01,4.58c-0.55,0.27-1.26,0.32-1.89,0.28
		c-1.93-0.12-3.85-0.41-5.79-0.51c-2.21-0.11-4.44-0.19-6.65-0.09c-1.25,0.06-2.55,0.32-3.71,0.78
		c-8.43,3.27-12.36,10.66-16.28,18.01c-1.4,2.62-2.55,5.37-3.97,7.98c-0.58,1.07-0.91,2.16-1.06,3.25
		c24.57,6.99,50.64,10.74,77.64,10.74c4.4,0,8.78-0.1,13.14-0.3c0.01-0.44,0.04-0.86,0.09-1.29c0.11-0.88,1.05-1.65,1.61-2.48
		c0.74,0.51,1.72,0.87,2.18,1.56c0.48,0.72,1.04,1.36,1.67,1.9c1.85,1.58,4.27,2.3,6.71,1.58c0.75-0.22,1.41-1.29,1.84-2.26
		c0.09-0.2,0.17-0.39,0.24-0.57c0.55-1.48,0.47-3.2,1.08-4.64c0.58-1.41,0.05-1.97-0.99-2.6c-1.54-0.93-2.97-2.06-4.57-2.86
		c-0.54-0.28-1.45,0.16-2.19,0.27c-0.67,0.11-1.33,0.21-1.99,0.32c-0.03-0.78-0.4-1.87-0.02-2.29c0.94-1.05,2.17-1.88,3.37-2.65
		c0.74-0.48,1.86-0.49,2.42-1.08c0.54-0.58,0.8-1.64,0.74-2.45c-0.02-0.36-1.12-0.68-1.76-0.94c-0.75-0.31-1.71-0.35-2.23-0.87
		c-0.36-0.34-0.11-1.3-0.14-1.98c0.59-0.02,1.23-0.19,1.75-0.02c0.52,0.17,0.88,0.76,1.38,1.05c1.52,0.88,2.95,1.25,3.93-0.79
		c0.21-0.42,0.56-0.99,0.94-1.09c3.06-0.78,6.15-1.45,9.22-2.18c1.02-0.24,2.18-0.32,3-0.88c2.01-1.34,1.85-2.29-0.21-3.57
		c-1.54-0.95-2.87-2.42-4.53-2.99c-3.27-1.13-6.68-1.89-10.08-2.57c-0.66-0.14-1.69,0.6-2.27,1.21c-2.75,2.88-5.65,2.94-8.27-0.03
		c-0.92-1.03-1.69-2.19-2.52-3.29c-0.21,0.22-0.42,0.43-0.63,0.65c-0.07,0.04-0.2,0.1-0.2,0.13c0.87,4.19-0.52,8.98,3.29,12.4
		c1.15,1.03,2.34,2.34,1.02,3.83c-1.13,1.27-2.68,1.92-4.45,0.7c-1.61-1.11-3.35-2.02-5.02-3.04c-1.42-0.86-2.13-1.99-1.6-3.75
		c0.12-0.4-0.24-1.12-0.6-1.45c-1.21-1.14-2.52-2.16-3.77-3.25c-0.5-0.44-0.86-1.18-1.42-1.36c-1.12-0.36-2.33-0.42-3.5-0.6
		c-0.13,0.99-0.56,2.07-0.32,2.95c0.49,1.75,1.65,3.33,1.97,5.08c0.25,1.38-0.17,2.97-0.67,4.33c-0.12,0.3-2.08,0.38-2.71-0.09
		c-0.7-0.53-1.32-1.88-1.16-2.72c0.45-2.37-0.43-4.13-1.62-6.02c-0.46-0.73-0.03-2.03,0.02-3.06c0.01-0.14,0.21-0.25,0.31-0.39
		c2.51-3.57,1.8-5.31-2.59-5.5c-3.83-0.17-6.11-2.89-8.81-4.84c-1.58-1.15-1.15-3.44,0.67-4.32c4.61-2.24,9.44-4.05,13.97-6.41
		c6.39-3.34,13.53-1.89,20.17-3.6c2.01-0.52,4.25-0.11,6.38-0.25c1.16-0.08,2.3-0.43,3.28-0.63c1.16,0.17,2.21,0.31,3.26,0.46
		c0.4,0.06,0.93,0.02,1.18,0.26c3.87,3.61,9.43,5.39,11.65,10.77c0.06,0.16,0.17,0.29,0.22,0.45c1.2,3.87,2.5,7.71,3.52,11.63
		c0.26,0.99-0.23,2.26-0.62,3.31c-0.56,1.53-0.28,2.34,1.42,2.68c0.82,0.16,1.62,0.65,2.32,1.16c1.5,1.08,2.54,2.92,4.83,2.63
		c0.34-0.05,0.9,0.45,1.12,0.84c0.78,1.43,1.47,2.92,2.29,4.58c-3.86,0.95-3.71,4.57-4.47,7.34c-1.18,4.33-3.73,7.5-6.81,10.27
		c3.87-0.62,7.72-1.32,11.53-2.1c0.1-0.51,0.32-1.07,0.68-1.67c1.49-2.55,1.78-6.08,1.77-9.17c-0.02-5.54,0.18-11.31-1.27-16.55
		c-1.48-5.31-4.54-10.29-7.49-15.06c-3.34-5.38-7.45-10.32-13.12-13.42c-2.66-1.45-5.81-2.01-8.84-3c0.19-0.2,0.53-0.78,1.03-1.1
		c4.56-2.91,9.37-4.92,15-4.39c1.26,0.11,2.59-0.68,3.9-1.01c1.52-0.38,3.05-0.81,4.6-1.06c1.43-0.23,3,0.04,4.33-0.43
		c6.44-2.25,12.63-5.03,18.27-8.96c1.04-0.72,2.44-1.2,3.7-1.26c6.01-0.27,11.49,1.12,16.94,4.03c6.04,3.23,9.56,8.52,13.73,13.42
		c4.17,4.89,5.91,10.95,8.28,16.66c1.12,2.71,0.77,6.13,0.7,9.22c-0.06,2.55-0.53,5.13-1.1,7.63c-0.42,1.85-1.29,3.61-1.95,5.41
		c-0.2,0.54-0.64,1.13-0.54,1.6c0.02,0.07,0.03,0.15,0.04,0.22c35.74-16.1,67.09-39.43,91.88-67.97
		C433.59,356.07,432.2,352.77,430,349.78z M232.38,438c0.29,0.01,0.57,0.01,0.86,0.02c0.26,0.99,1.02,2.27,0.66,2.89
		c-0.38,0.65-1.84,0.67-2.82,0.97c-0.18-0.31-0.36-0.61-0.54-0.92C231.16,439.97,231.77,438.99,232.38,438z M296.61,260.47
		c-1.15,1.42-1.15,1.42-5.18,0.56C293.01,260.86,294.59,260.69,296.61,260.47z M215.04,176.61c0.77-1.41,2.17-2.24,3.99-1.57
		c2.71,0.98,5.36,0.58,8.52-0.49c-0.84-0.88-1.49-1.41-1.94-2.08c-0.59-0.87-1-1.85-1.54-2.76c-0.32-0.56-0.62-1.37-1.12-1.54
		c-1.66-0.57-2.13-1.52-1.86-3.24c0.14-0.89-0.37-1.89-0.62-2.94c-0.88,0-1.62,0.05-2.35-0.01c-1.18-0.08-2.15-0.33-1.82-1.95
		c0.11-0.56-0.28-1.22-0.39-1.84c-0.13-0.73-0.47-1.59-0.22-2.18c0.16-0.39,1.21-0.56,1.87-0.56c5.44,0,9.25,3.34,13.26,6.41
		c2.67,2.04,5.25,3.82,6.15,7.43c0.46,1.82,1.99,3.44,3.25,4.98c0.9,1.09,2.17,1.87,3.6,3.08c-2.48,1.8-4.43,3.17-6.32,4.62
		c-0.85,0.65-1.83,1.33-2.32,2.24c-2.08,3.91-5.88,4.11-9.49,4.23c-1.24,0.05-2.54-1.44-3.92-2.29c-0.34,0.42-0.75,0.91-1.13,1.35
		c-0.26-0.01-0.54,0.04-0.57-0.03c-0.86-1.8-2.58-3.17-2.35-5.53c0.08-0.87-0.74-1.85-1.22-2.74
		C216.02,178.29,214.79,177.07,215.04,176.61z M188.05,103.79c1.24,0.86,2.11,1.47,3.25,2.28c-0.94,1.04-1.86,2.04-2.77,3.04
		c-0.16-0.14-0.32-0.29-0.48-0.44V103.79z M187.61,221.27c2.54,1.69,5.08,3.37,7.62,5.05c-0.11,0.18-0.22,0.35-0.34,0.52
		c-2.57-1.63-5.14-3.27-7.72-4.9C187.32,221.72,187.46,221.49,187.61,221.27z M158.97,191.76c0.03-0.33,0.1-0.66,0.26-1.64
		c1.09,8.45,1.54,12.3,11.19,21.31c-1.88-0.63-4.2-1.37-6.5-2.19c-0.42-0.15-0.95-0.51-1.07-0.9
		C161.06,202.93,158.41,197.71,158.97,191.76z M158.77,219.92c-0.76-2.67-0.18-5.72-0.18-8.96c2.44,0.18,4.46,0.34,6.47,0.49
		c0,0.17-0.01,0.34-0.01,0.52c-1.2,0.05-2.4,0.1-4.2,0.18c3.27,4.04,6.18,7.63,9.25,11.42c-4.26-1.08-5.18-5.53-8.33-7.71
		c1.31,6.08,7.72,12.34,13.96,14.2c5.14,1.53,10.17,3.42,15.25,5.15c-0.05,0.23-0.09,0.45-0.14,0.67c-0.48-0.03-0.99,0.03-1.45-0.09
		c-7.29-1.95-14.56-3.98-21.88-5.85c-1.74-0.44-3.64-0.58-5.43-0.42c-2.38,0.21-3.39-0.66-3.52-2.97c-0.04-0.78-0.46-1.53-0.77-2.47
		C159.75,223.18,159.36,221.97,158.77,219.92z M157.7,235.78c1.73-1.8,3.9-2.63,6.43-2.64c0.11,0.26,0.21,0.51,0.32,0.77
		c-2.14,0.89-4.27,1.78-6.41,2.68C157.93,236.32,157.81,236.05,157.7,235.78z M191.64,276.54c2.61,2.87,2.15,6.81,0.69,9.9
		c-1.64,3.44-2.25,6.4-0.67,9.98c0.88,1.99,1.87,4.22,0.83,7.39c-2.27-1.85-4.68-3.07-5.97-5.03c-1.68-2.59-2.97-5.65-3.57-8.69
		c-1.4-6.98-2.3-14.07-3.35-21.12c-0.09-0.57,0.24-1.21,0.37-1.82c0.66,0.18,1.49,0.17,1.96,0.57
		C185.23,270.59,188.71,273.32,191.64,276.54z M193.59,248.17c-1.37,3.47-3.06,6.81-4.74,10.15c-2.22,4.43-6.62,4.53-10.7,4.98
		c-0.7,0.08-1.69-1.2-2.34-2.01c-1.11-1.38-2.06-2.88-3.05-4.35c-0.34-0.51-0.95-1.17-0.83-1.61c0.51-2-0.82-3.04-2.04-3.93
		c-2.65-1.94-4.13-4.33-4.02-7.68c0.02-0.46-0.47-1.02-0.86-1.39c-1.52-1.44-3.09-2.82-5.03-4.57c1.12-0.22,1.69-0.51,2.16-0.38
		c3.34,0.89,6.62,2.13,10.01,2.73c2.19,0.39,4.54-0.06,6.81-0.27c0.83-0.08,1.62-0.54,2.85-0.98c-0.3,2-0.52,3.49-0.74,4.98
		c0.16,0.1,0.32,0.19,0.48,0.28c1.15-1.35,2.31-2.71,3.46-4.07c0.08,0.14,0.15,0.27,0.22,0.4c-0.81,2.36-1.87,4.67-2.37,7.09
		c-0.52,2.54-0.53,5.18-0.67,7.78c-0.05,0.89,0.13,1.81,0.31,2.69c0.17,0.86,0.4,2.35,0.74,2.39c1.02,0.12,2.67,0.02,3.07-0.63
		c1.16-1.85,2.07-3.94,2.63-6.05c0.66-2.47,0.75-5.09,1.29-7.6c0.22-1.04,0.94-1.97,1.7-3.47c0.51,1.22,0.74,1.79,1.16,2.8
		c0.3-1.18,0.49-1.96,0.69-2.74c0.21,0.03,0.43,0.06,0.65,0.09C194.17,244.6,194.25,246.53,193.59,248.17z M195.35,235.04
		c-4.81-3.22-9.62-6.44-14.43-9.67c0.03-0.04,0.06-0.08,0.09-0.12c-0.9-0.48-2.37-0.78-2.6-1.48c-1.56-4.86-4.8-8.22-9.09-10.77
		c0.12-0.18,0.25-0.35,0.37-0.53c2.9,1.77,5.81,3.54,8.72,5.31c0.16-0.24,0.42-0.69,0.47-0.69c2.25,1.06,4.48,2.17,6.48,3.77
		c-2.21-0.96-4.42-1.93-6.62-2.9c2.27,1.51,4.5,3.06,6.81,4.5c2.59,1.63,5.38,2.98,7.84,4.77
		C197.13,229.95,197.13,230.43,195.35,235.04z M196.24,237.3c0.43-3.15,0.8-5.83,1.19-8.71
		C200.29,230.47,199.66,235.47,196.24,237.3z M200.91,242.26c-4.3-4.72,0.42-8.73-0.45-12.87c0.22,0,0.44,0,0.66-0.01
		c0.55,2.07,1.55,4.13,1.53,6.19C202.62,237.68,201.6,239.77,200.91,242.26z M201.47,82.21c1.02-0.17,2.08-0.62,3.03-0.45
		c0.83,0.16,1.54,1.01,2.71,1.84c-0.92,0.46-1.37,0.86-1.81,0.86c-0.63-0.01-1.34-0.2-1.87-0.53
		C202.78,83.47,202.15,82.8,201.47,82.21z M208.48,241.49c0.1-0.88,0.21-1.85,0.38-3.39c-0.59,1.07-0.93,1.68-1.32,2.39
		c-1.24-1.23-3-2.24-3.46-3.66c-0.4-1.25,0.26-3.31,1.19-4.38s2.76-1.35,4.2-1.97c0.1,0.23,0.2,0.45,0.3,0.68
		c0.22-0.84,0.44-1.67,0.67-2.51c0.2,0.02,0.4,0.04,0.6,0.06c-0.18,2.42-0.36,4.85-0.53,7.27c0.16,0.15,0.33,0.3,0.5,0.45
		c0.73-0.81,1.46-1.62,2-2.22c0.44,1.92,0.95,4.1,1.5,6.49c-0.95,0.3-1.85,1.51-3.36,0.22
		C210.74,240.58,209.46,241.26,208.48,241.49z M217.36,258.63c-0.24,0.37-1.15,0.56-1.68,0.45c-3.1-0.66-4.55-3.05-3.9-6.17
		c0.18-0.87,0.27-1.75,0.36-2.38c1.56,1.54-1.46,4.4,1.53,6.07c0.44-0.66,0.81-1.22,1.29-1.92c0.77,0.81,1.53,1.45,2.07,2.24
		C217.35,257.38,217.59,258.26,217.36,258.63z M238.45,263.04c-0.88,3.7-1.87,7.38-2.81,11.07c-0.25-0.09-0.49-0.19-0.73-0.29
		c-0.97,0.99-1.87,2.08-2.95,2.95c-0.82,0.67-1.86,1.07-3.25,1.84c0.13-1.09,0.14-1.34,0.2-1.58c0.4-1.59,2.53-3.02,0.6-4.85
		c-1.25-1.19-2.5-2.43-3.96-3.31c-4.19-2.53-5.76-6.22-4.76-11.14c0.29-1.47,0.04-3.04,0.04-4.56c0.27-0.04,0.55-0.07,0.82-0.1
		c0.29,2.55,0.79,5.1,0.84,7.66c0.07,4.22,2.56,6.6,6.95,6.1c-1.11-3.07-2.2-6.1-3.45-9.58c1.41,1.18,2.53,2.11,3.8,3.17
		c0.28-0.54,0.51-0.81,0.55-1.1c0.49-3.35,1.1-3.59,3.94-1.51c0.6,0.43,1.25,1.13,1.87,1.13
		C239.5,258.93,238.93,261.05,238.45,263.04z M250.79,198.54c-0.09,0.22-0.23,0.52-0.15,0.7c2.25,5.77-1.21,10.64-2.46,15.85
		c-0.64,2.63-1.24,5.29-2.17,7.82c-1.04,2.84-2.23,5.67-3.76,8.27c-1.38,2.34-3.3,4.35-4.86,6.34c1.64,1.79,3.29,3.36,4.67,5.14
		c2.03,2.61,1.81,4.11-0.14,6.15c-2.67-0.94-5.14-1.59-7.41-2.67c-2-0.95-3.87-2.25-5.64-3.59c-4.37-3.3-8.64-6.73-12.97-10.08
		c-0.85-0.65-1.8-1.17-2.7-1.75c9.2-4.41,18.35-7.04,26.1-12.72c3.85-2.81,6.73-6.36,8.66-10.69c0.19-0.42,0.22-0.92,0.09-1.58
		c-2.97,6.32-8.83,8.98-14.49,11.88c-0.42-0.91-0.85-1.83-1.19-2.58c2.57-1.47,5.21-2.97,8.05-4.59c-1.66-1.97-3-1.04-4.32-0.55
		c-1.35,0.51-2.7,0.99-4.05,1.48c-0.13-0.24-0.27-0.49-0.4-0.73c0.48-0.38,0.92-0.82,1.44-1.12c2-1.17,4.17-2.11,6.02-3.48
		c1.34-1.01,2.37-2.5,3.37-3.89c1.18-1.64,1.66-3.8,4-4.51c0.63-0.19,1.47-1.34,1.39-1.93c-0.55-3.8,2.45-5.37,4.47-7.58
		c0.37-0.41,0.62-0.93,1.25-1.29c-0.21,0.94-0.42,1.88-0.63,2.83c0.11,0.03,0.23,0.07,0.35,0.11c1.18-3.05,2.37-6.11,3.55-9.16
		c0.28,0.11,0.56,0.21,0.83,0.32c-1.16,2.94-2.32,5.88-3.47,8.82C253.07,192.68,251.93,195.61,250.79,198.54z M257.21,316.07
		c-0.37-0.23-0.74-0.45-1.11-0.68c3.01-4.11,5.89-8.32,9.7-11.83c0.17,0.13,0.34,0.26,0.52,0.39
		C263.28,307.99,260.25,312.03,257.21,316.07z M277.99,305.2c-1.16-0.4-2.27-0.79-3.38-1.18c0-0.15,0.01-0.31,0.02-0.47
		c0.54-0.11,1.08-0.22,1.84-0.37c-0.26-0.72-0.51-1.42-0.54-1.51c2.12-0.55,4.24-1.1,6.78-1.76
		C280.99,301.84,279.55,303.45,277.99,305.2z M280.06,309.54c5.14,3.97,10.33,7.9,13.48,13.82
		C289.04,318.75,284.55,314.14,280.06,309.54z M293.34,319.45c-2.25-2.36-4.5-4.72-6.74-7.08c0.11-0.14,0.21-0.27,0.32-0.41
		c1.02,0.62,2.04,1.25,3.06,1.87c-0.02-0.03-0.05-0.07-0.07-0.1c0.04,0.03,0.08,0.06,0.12,0.09c-1.56-2.31-3.13-4.61-4.69-6.93
		c0.08-0.19,0.15-0.38,0.22-0.58c0.93,0.22,1.86,0.43,2.78,0.65v-0.01c-0.72-3.07-2.93-3.2-5.76-2.1c0.08-0.28,0.17-0.57,0.25-0.85
		c0.42-0.15,0.83-0.35,1.27-0.43c1.24-0.25,2.28-0.15,1.85-2.27c-0.26-1.26,1.3-2.88,2.33-4.92c0,1.44,0,2.27,0.01,3.1
		c0.02,2.49,0.04,4.98,0.07,7.46c0.63,0.12,1.41,0.05,1.88,0.4c2.08,1.56,3.68,6.65,2.92,8.82c-1.04-0.78-2.08-1.56-3.12-2.34h-0.01
		c0.02,0.02,0.03,0.05,0.05,0.07c-0.03-0.02-0.06-0.04-0.09-0.06h-0.01c1.27,1.73,2.54,3.46,3.82,5.19
		C293.65,319.16,293.49,319.3,293.34,319.45z M304.31,287.73c-2.05,0.25-3.88,0.43-5.69,0.69c-1.72,0.26-3.42,0.73-5.14,0.82
		c-0.6,0.04-1.8-0.78-1.78-1.15c0.14-2.41-1.58-2.21-3-2.26c-1.13-0.03-2.27,0.23-4.04,0.43c2.37-1.97,1.78-3.58,0.23-5.09
		c-0.32-0.31-0.71-0.62-1.13-0.76c-1.66-0.55-3.34-1.03-5.11-1.56c-0.02,0.06-0.07,0.22-0.14,0.44c-0.02,0.07-0.05,0.16-0.07,0.25
		c-0.02,0.05-0.03,0.1-0.05,0.16c-0.61-0.64-1.22-1.29-1.84-1.94c-2.1,1.77-2.74-0.9-4.53-1.87c-0.68,1.42-1.34,2.81-2.08,4.36
		c-1.6-1.32-4.07-2.38-4.25-3.73c-0.31-2.38-1.78-2.96-3.29-3.68c-0.74-0.35-1.95-0.22-2.72,0.15c-1.09,0.53-2.07,1.31-1.26,2.97
		c0.34,0.69-0.15,1.78-0.29,2.9c1.21,0.48,2.68,1.07,4.15,1.66c-0.08,0.19-0.16,0.38-0.24,0.57c-2.2-0.59-4.52-0.92-6.54-1.89
		c-0.76-0.36-1.38-2.38-1.07-3.31c0.46-1.39,1.57-3.07,2.83-3.57c1.81-0.73,2.16-1.83,2.5-3.43c0.93-4.35,4.13-6.32,8.5-5.43
		c0.55,0.12,1.32,0.49,1.63,0.25c4.54-3.34,9.5-1.61,14.34-1.3c0.66,0.04,1.36,0.19,1.97,0.02c2.92-0.79,5.45,0.21,7.24,2.25
		c4.01,4.56,8.07,9.14,9.93,15.15C304.79,284.42,304.83,284.41,304.31,287.73z"/>
	<path class="st1" d="M236.75,284.23c-1.31,8.71-2.78,17.4-4,26.11c-1.36,9.72-2.72,19.44-3.7,29.2
		c-0.83,8.19-1.22,16.42-1.58,24.64c-0.1,2.18,0.66,4.4,1.01,6.61c0.15,0.97,0.59,2.09,0.28,2.91c-0.48,1.29-1.26,2.92-2.35,3.41
		c-0.84,0.36-2.55-0.59-3.53-1.38c-1.96-1.58-2.56-3.8-2.86-6.33c-0.26-2.18-1.47-4.25-2.27-6.36c-0.23,0.03-0.45,0.07-0.68,0.1
		v20.21c-0.18,0.01-0.36,0.01-0.54,0.01c-0.58-5.9-1.16-11.8-1.74-17.7c-0.24,0.01-0.48,0.02-0.71,0.03
		c0.11,2.56,0.25,5.12,0.34,7.68c0.05,1.24,0.22,2.53-0.02,3.73c-0.17,0.84-0.93,1.56-1.42,2.33c-0.77-0.61-1.7-1.1-2.27-1.86
		c-0.51-0.69-0.63-1.66-0.92-2.51c-0.28,0.11-0.55,0.22-0.82,0.33c0.54,3.84,2.07,7.23,5.14,9.9c-0.04,0.22-0.09,0.45-0.14,0.68
		c-1.85,0.25-3.69,0.51-6.04,0.83c0.93,0.97,1.69,1.64,2.3,2.43c0.41,0.53,0.59,1.22,0.87,1.83c-0.59,0.17-1.18,0.42-1.79,0.48
		c-1.55,0.15-3.17-0.01-4.65,0.37c-1.74,0.45-2.27,1.77-1.5,3.4h4.59c-2.78,1.6-4.29,5-8.13,4.67c-1.36-0.12-1.47,1.65-0.76,2.97
		c1.48,2.75,1.44,2.73-1.41,4.15c-3.01,1.51-5.99,3.1-9.01,4.58c-0.55,0.27-1.26,0.32-1.89,0.28c-1.93-0.12-3.85-0.41-5.79-0.51
		c-2.21-0.11-4.44-0.19-6.65-0.09c-1.25,0.06-2.55,0.32-3.71,0.78c-8.43,3.27-12.36,10.66-16.28,18.01
		c-1.4,2.62-2.55,5.37-3.97,7.98c-0.58,1.07-0.91,2.16-1.06,3.25c-17.04-4.83-33.36-11.22-48.78-19c1.07-0.87,2.13-1.76,3.09-2.75
		c0.62-0.63,0.57-1.9,0.83-2.89c-0.9-0.1-1.81-0.16-2.69-0.34c-0.73-0.14-1.53-0.27-2.12-0.66c-0.89-0.59-1.51-1.65-2.45-2.09
		c-2.52-1.17-2.68-2.77-1.33-4.94c1.4-2.24,2.71-4.53,4.17-6.99c-2.2-0.48-1.52-1.85-0.7-3.22c2.82-4.68,5.36-9.55,8.56-13.96
		c4.32-5.94,9.99-10.52,17.57-11.13c3.65-0.3,7.58,0.69,11.12,1.89c3.68,1.25,7.2,2.21,11.14,1.9c1.97-0.16,4.07,0.56,6.03,1.14
		c5.64,1.65,11.25,3.43,16.87,5.16c1.57,0.48,2.24-0.01,2.81-1.69c5.19-15.25,9.14-30.77,10.21-46.93c0.25-0.02,0.51-0.03,0.76-0.05
		c1.3,6.47,2.64,12.92,3.89,19.39c2.02,10.45,3.99,20.91,5.96,31.36c0.5,2.62,0.97,5.24,1.42,7.86c0.26,1.47,0.96,2.77,2.57,2.39
		c1.5-0.35,1.44-1.51,1.19-3.12c-0.56-3.66-1.12-7.53-0.52-11.12c0.94-5.5-0.89-10.64-1.09-15.96c-0.51-13.63-1.5-27.23-2.11-40.86
		c-0.4-8.87-0.47-17.77-0.7-26.65c-0.23-8.64,0.14-17.16,4.78-25.01c-2.77-1.26-5.57-2.09-7.84-3.69c-2.26-1.59-3.97-3.96-6.09-6.16
		c1.06-1,2.12-2.17,3.33-3.12c2.49-1.96,3.84-4.39,4.36-7.57c0.34-2.03,1.69-3.88,2.66-5.96c4.89,2.7,0.81,6.04,1.29,9.11
		c0.9,0.39,2.01,0.88,3.31,1.45c-0.43,0.8-0.76,1.43-1.12,2.12c0.02,0.07,0.03,0.29,0.13,0.35c1.85,1.12,1.26,2.05-0.22,2.89
		c-3.09,1.77-3.2,3.06-0.49,5.32c0.82,0.69,1.56,1.48,2.48,2.35c4.4-5.02,3.33-10.8,1.88-16.93c5.32,3.42,8.32,7.72,9.97,13.09
		c0.56,1.83,1.62,3.51,2.43,5.23c1.16-0.36,1.84-0.58,3.02-0.95c-0.1,1.24-0.03,2.18-0.27,3.05c-0.53,1.92-1.22,3.79-1.83,5.7
		c-1.03,3.24,1.69,6.31,5.06,5.7c0.53-0.09,1.07-0.19,1.57-0.39c3.8-1.48,3.8-1.49,3.44,2.59c-3.18,1.01-5.4,4.81-4.46,7.16
		c4.44-4.57,8.97-9.23,13.5-13.89c0.37,0.16,0.73,0.32,1.09,0.48C236.77,282.1,236.9,283.19,236.75,284.23z"/>
	<path class="st1" d="M345.93,412.66c-0.06,2.55-0.53,5.13-1.1,7.63c-0.42,1.85-1.29,3.61-1.95,5.41c-0.2,0.54-0.64,1.13-0.54,1.6
		c0.02,0.07,0.03,0.15,0.04,0.22c-18.48,8.32-38.13,14.71-58.66,18.89c0.1-0.51,0.32-1.07,0.68-1.67c1.49-2.55,1.78-6.08,1.77-9.17
		c-0.02-5.54,0.18-11.31-1.27-16.55c-1.48-5.31-4.54-10.29-7.49-15.06c-3.34-5.38-7.45-10.32-13.12-13.42
		c-2.66-1.45-5.81-2.01-8.84-3c0.19-0.2,0.53-0.78,1.03-1.1c4.56-2.91,9.37-4.92,15-4.39c1.26,0.11,2.59-0.68,3.9-1.01
		c1.52-0.38,3.05-0.81,4.6-1.06c1.43-0.23,3,0.04,4.33-0.43c6.44-2.25,12.63-5.03,18.27-8.96c1.04-0.72,2.44-1.2,3.7-1.26
		c6.01-0.27,11.49,1.12,16.94,4.03c6.04,3.23,9.56,8.52,13.73,13.42c4.17,4.89,5.91,10.95,8.28,16.66
		C346.35,406.15,346,409.57,345.93,412.66z"/>
	<path class="st2" d="M245.42,451.51c-1.85,0.13-3.7,0.23-5.55,0.31c0.01-0.44,0.04-0.86,0.09-1.29c0.11-0.88,1.05-1.65,1.61-2.48
		c0.74,0.51,1.72,0.87,2.18,1.56C244.23,450.33,244.79,450.97,245.42,451.51z"/>
	<path class="st2" d="M283.47,430.9c-3.86,0.95-3.71,4.57-4.47,7.34c-1.18,4.33-3.73,7.5-6.81,10.27
		c-6.01,0.97-12.08,1.74-18.22,2.32c0.09-0.2,0.17-0.39,0.24-0.57c0.55-1.48,0.47-3.2,1.08-4.64c0.58-1.41,0.05-1.97-0.99-2.6
		c-1.54-0.93-2.97-2.06-4.57-2.86c-0.54-0.28-1.45,0.16-2.19,0.27c-0.67,0.11-1.33,0.21-1.99,0.32c-0.03-0.78-0.4-1.87-0.02-2.29
		c0.94-1.05,2.17-1.88,3.37-2.65c0.74-0.48,1.86-0.49,2.42-1.08c0.54-0.58,0.8-1.64,0.74-2.45c-0.02-0.36-1.12-0.68-1.76-0.94
		c-0.75-0.31-1.71-0.35-2.23-0.87c-0.36-0.34-0.11-1.3-0.14-1.98c0.59-0.02,1.23-0.19,1.75-0.02c0.52,0.17,0.88,0.76,1.38,1.05
		c1.52,0.88,2.95,1.25,3.93-0.79c0.21-0.42,0.56-0.99,0.94-1.09c3.06-0.78,6.15-1.45,9.22-2.18c1.02-0.24,2.18-0.32,3-0.88
		c2.01-1.34,1.85-2.29-0.21-3.57c-1.54-0.95-2.87-2.42-4.53-2.99c-3.27-1.13-6.68-1.89-10.08-2.57c-0.66-0.14-1.69,0.6-2.27,1.21
		c-2.75,2.88-5.65,2.94-8.27-0.03c-0.92-1.03-1.69-2.19-2.52-3.29c-0.21,0.22-0.42,0.43-0.63,0.65c-0.07,0.04-0.2,0.1-0.2,0.13
		c0.87,4.19-0.52,8.98,3.29,12.4c1.15,1.03,2.34,2.34,1.02,3.83c-1.13,1.27-2.68,1.92-4.45,0.7c-1.61-1.11-3.35-2.02-5.02-3.04
		c-1.42-0.86-2.13-1.99-1.6-3.75c0.12-0.4-0.24-1.12-0.6-1.45c-1.21-1.14-2.52-2.16-3.77-3.25c-0.5-0.44-0.86-1.18-1.42-1.36
		c-1.12-0.36-2.33-0.42-3.5-0.6c-0.13,0.99-0.56,2.07-0.32,2.95c0.49,1.75,1.65,3.33,1.97,5.08c0.25,1.38-0.17,2.97-0.67,4.33
		c-0.12,0.3-2.08,0.38-2.71-0.09c-0.7-0.53-1.32-1.88-1.16-2.72c0.45-2.37-0.43-4.13-1.62-6.02c-0.46-0.73-0.03-2.03,0.02-3.06
		c0.01-0.14,0.21-0.25,0.31-0.39c2.51-3.57,1.8-5.31-2.59-5.5c-3.83-0.17-6.11-2.89-8.81-4.84c-1.58-1.15-1.15-3.44,0.67-4.32
		c4.61-2.24,9.44-4.05,13.97-6.41c6.39-3.34,13.53-1.89,20.17-3.6c2.01-0.52,4.25-0.11,6.38-0.25c1.16-0.08,2.3-0.43,3.28-0.63
		c1.16,0.17,2.21,0.31,3.26,0.46c0.4,0.06,0.93,0.02,1.18,0.26c3.87,3.61,9.43,5.39,11.65,10.77c0.06,0.16,0.17,0.29,0.22,0.45
		c1.2,3.87,2.5,7.71,3.52,11.63c0.26,0.99-0.23,2.26-0.62,3.31c-0.56,1.53-0.28,2.34,1.42,2.68c0.82,0.16,1.62,0.65,2.32,1.16
		c1.5,1.08,2.54,2.92,4.83,2.63c0.34-0.05,0.9,0.45,1.12,0.84C281.96,427.75,282.65,429.24,283.47,430.9z"/>
	<path class="st2" d="M304.31,287.73c-2.05,0.25-3.87,0.43-5.69,0.69c-1.72,0.25-3.41,0.72-5.14,0.82c-0.6,0.03-1.8-0.78-1.78-1.15
		c0.14-2.41-1.58-2.21-3.01-2.26c-1.13-0.04-2.27,0.22-4.04,0.43c2.38-1.97,1.78-3.58,0.23-5.09c-0.32-0.31-0.72-0.62-1.13-0.76
		c-1.66-0.55-3.33-1.03-5.11-1.56c0.05-0.16-0.11,0.35-0.26,0.85c-0.61-0.64-1.22-1.29-1.83-1.94c-2.1,1.77-2.74-0.9-4.53-1.87
		c-0.68,1.42-1.34,2.81-2.08,4.36c-1.6-1.32-4.07-2.38-4.25-3.74c-0.31-2.37-1.78-2.96-3.29-3.67c-0.74-0.35-1.95-0.23-2.72,0.15
		c-1.09,0.53-2.07,1.31-1.26,2.97c0.34,0.69-0.15,1.78-0.29,2.9c1.21,0.48,2.68,1.07,4.15,1.66c-0.08,0.19-0.16,0.38-0.24,0.57
		c-2.2-0.59-4.52-0.92-6.54-1.89c-0.76-0.37-1.39-2.38-1.08-3.31c0.46-1.39,1.58-3.07,2.83-3.57c1.81-0.73,2.16-1.82,2.5-3.43
		c0.93-4.35,4.13-6.32,8.49-5.43c0.55,0.11,1.32,0.48,1.64,0.25c4.54-3.34,9.5-1.61,14.34-1.31c0.66,0.04,1.36,0.19,1.97,0.03
		c2.92-0.79,5.45,0.21,7.24,2.25c4.01,4.56,8.07,9.14,9.92,15.15C304.79,284.42,304.83,284.41,304.31,287.73z"/>
	<path class="st2" d="M254.22,189.76c1.15-2.94,2.31-5.88,3.47-8.82c-0.27-0.11-0.55-0.21-0.83-0.32c-1.18,3.05-2.37,6.11-3.55,9.16
		c-0.12-0.04-0.24-0.08-0.35-0.11c0.21-0.95,0.42-1.89,0.63-2.83c-0.63,0.36-0.88,0.88-1.25,1.29c-2.02,2.21-5.02,3.78-4.47,7.58
		c0.08,0.59-0.76,1.74-1.39,1.93c-2.34,0.71-2.82,2.87-4,4.51c-1,1.39-2.03,2.88-3.37,3.89c-1.85,1.37-4.02,2.31-6.02,3.48
		c-0.52,0.3-0.96,0.74-1.44,1.12c0.13,0.24,0.27,0.49,0.4,0.73c1.35-0.49,2.7-0.97,4.05-1.48c1.32-0.49,2.66-1.42,4.32,0.55
		c-2.84,1.62-5.48,3.12-8.05,4.59c0.34,0.75,0.77,1.67,1.19,2.58c5.66-2.9,11.52-5.56,14.49-11.88c0.13,0.66,0.1,1.16-0.09,1.58
		c-1.93,4.33-4.81,7.88-8.66,10.69c-7.75,5.68-16.9,8.31-26.1,12.72c0.9,0.58,1.85,1.1,2.7,1.75c4.33,3.35,8.6,6.78,12.97,10.08
		c1.77,1.34,3.64,2.64,5.64,3.59c2.27,1.08,4.74,1.73,7.41,2.67c1.95-2.04,2.17-3.54,0.14-6.15c-1.38-1.78-3.03-3.35-4.67-5.14
		c1.56-1.99,3.48-4,4.86-6.34c1.53-2.6,2.72-5.43,3.76-8.27c0.93-2.53,1.53-5.19,2.17-7.82c1.25-5.21,4.71-10.08,2.46-15.85
		c-0.08-0.18,0.06-0.48,0.15-0.7C251.93,195.61,253.07,192.68,254.22,189.76z M241.46,246.39c-9.41-0.03-14.05-6.94-20.28-11.08
		C227.73,238.89,234.29,242.47,241.46,246.39z"/>
	<path class="st2" d="M221.77,186.15c-0.35,0.41-0.76,0.9-1.13,1.35c-0.26-0.01-0.54,0.03-0.57-0.04c-0.86-1.8-2.58-3.17-2.36-5.53
		c0.08-0.87-0.73-1.85-1.21-2.74c-0.49-0.91-1.72-2.13-1.47-2.58c0.77-1.41,2.17-2.24,4-1.57c2.71,0.99,5.35,0.58,8.51-0.49
		c-0.83-0.88-1.49-1.41-1.94-2.08c-0.59-0.87-1-1.85-1.53-2.76c-0.33-0.56-0.63-1.37-1.12-1.54c-1.67-0.57-2.14-1.52-1.86-3.24
		c0.14-0.89-0.38-1.89-0.62-2.94c-0.88,0-1.62,0.04-2.35-0.01c-1.18-0.08-2.15-0.33-1.82-1.95c0.11-0.56-0.28-1.22-0.39-1.84
		c-0.13-0.74-0.47-1.59-0.22-2.19c0.16-0.39,1.22-0.55,1.87-0.55c5.45,0,9.25,3.34,13.27,6.41c2.66,2.03,5.25,3.82,6.15,7.43
		c0.46,1.82,1.98,3.45,3.25,4.98c0.9,1.09,2.17,1.88,3.6,3.08c-2.48,1.81-4.43,3.17-6.32,4.62c-0.85,0.65-1.84,1.34-2.32,2.24
		c-2.09,3.91-5.88,4.11-9.49,4.23C224.45,188.48,223.15,187,221.77,186.15z"/>
	<path class="st2" d="M191.93,242.64c0.51,1.23,0.74,1.79,1.16,2.81c0.29-1.18,0.49-1.96,0.68-2.74c0.22,0.03,0.44,0.06,0.65,0.08
		c-0.26,1.8-0.18,3.73-0.84,5.38c-1.37,3.47-3.07,6.81-4.74,10.15c-2.22,4.43-6.63,4.52-10.7,4.98c-0.71,0.08-1.69-1.2-2.34-2.01
		c-1.1-1.38-2.06-2.88-3.05-4.35c-0.34-0.51-0.95-1.18-0.84-1.62c0.51-2-0.82-3.04-2.04-3.93c-2.65-1.93-4.13-4.33-4.01-7.68
		c0.02-0.46-0.48-1.02-0.87-1.39c-1.52-1.44-3.09-2.82-5.03-4.58c1.12-0.21,1.69-0.5,2.16-0.38c3.35,0.9,6.62,2.14,10.02,2.74
		c2.19,0.39,4.54-0.06,6.8-0.27c0.83-0.08,1.62-0.54,2.85-0.98c-0.3,2-0.52,3.49-0.74,4.98c0.16,0.09,0.32,0.19,0.48,0.28
		c1.15-1.36,2.31-2.71,3.46-4.07c0.07,0.13,0.15,0.27,0.22,0.4c-0.81,2.36-1.88,4.67-2.37,7.09c-0.52,2.53-0.53,5.18-0.67,7.78
		c-0.05,0.89,0.13,1.81,0.31,2.69c0.17,0.85,0.4,2.35,0.74,2.39c1.03,0.12,2.67,0.02,3.08-0.63c1.16-1.85,2.07-3.94,2.63-6.06
		c0.66-2.47,0.75-5.08,1.29-7.59C190.45,245.08,191.17,244.15,191.93,242.64z"/>
	<path class="st2" d="M192.49,303.81c-2.27-1.85-4.68-3.07-5.97-5.03c-1.69-2.59-2.97-5.65-3.58-8.69
		c-1.4-6.98-2.3-14.07-3.35-21.12c-0.09-0.58,0.24-1.21,0.37-1.82c0.66,0.18,1.49,0.17,1.96,0.57c3.3,2.87,6.78,5.59,9.71,8.81
		c2.61,2.87,2.15,6.81,0.69,9.9c-1.63,3.45-2.24,6.41-0.67,9.98C192.54,298.4,193.53,300.64,192.49,303.81z"/>
	<path class="st2" d="M234.91,273.82c-0.97,0.99-1.88,2.07-2.95,2.95c-0.82,0.67-1.86,1.07-3.25,1.85c0.14-1.09,0.14-1.34,0.2-1.58
		c0.41-1.6,2.53-3.02,0.6-4.86c-1.25-1.18-2.5-2.42-3.96-3.3c-4.19-2.54-5.77-6.23-4.77-11.15c0.3-1.46,0.05-3.04,0.05-4.56
		c0.27-0.03,0.55-0.06,0.82-0.1c0.29,2.55,0.79,5.1,0.83,7.66c0.07,4.22,2.57,6.6,6.95,6.1c-1.1-3.07-2.19-6.1-3.45-9.58
		c1.4,1.17,2.53,2.11,3.8,3.17c0.28-0.55,0.51-0.81,0.55-1.1c0.49-3.36,1.1-3.59,3.94-1.52c0.6,0.43,1.25,1.14,1.87,1.13
		c3.35-0.01,2.78,2.11,2.3,4.1c-0.89,3.7-1.87,7.38-2.82,11.07C235.39,274.01,235.15,273.92,234.91,273.82z"/>
	<path class="st2" d="M165.05,211.97c-1.2,0.05-2.4,0.11-4.19,0.19c3.26,4.03,6.18,7.63,9.25,11.42c-4.26-1.08-5.18-5.53-8.33-7.71
		c1.31,6.08,7.72,12.34,13.96,14.2c5.14,1.53,10.17,3.42,15.25,5.15c-0.05,0.22-0.09,0.44-0.14,0.67c-0.48-0.03-0.99,0.03-1.45-0.09
		c-7.29-1.95-14.56-3.98-21.88-5.85c-1.74-0.44-3.64-0.58-5.43-0.42c-2.38,0.21-3.4-0.67-3.52-2.98c-0.04-0.77-0.46-1.52-0.77-2.47
		c1.96-0.89,1.57-2.1,0.98-4.16c-0.76-2.67-0.19-5.72-0.19-8.96c2.44,0.18,4.46,0.34,6.47,0.49
		C165.06,211.62,165.05,211.79,165.05,211.97z"/>
	<path class="st2" d="M178.74,217.96c2.27,1.5,4.51,3.06,6.81,4.5c2.59,1.63,5.38,2.98,7.85,4.77c3.74,2.72,3.74,3.19,1.95,7.81
		c-4.81-3.22-9.62-6.44-14.43-9.67c0.03-0.04,0.06-0.08,0.09-0.12c-0.9-0.48-2.37-0.78-2.59-1.48c-1.56-4.86-4.8-8.22-9.09-10.77
		c0.12-0.18,0.24-0.35,0.36-0.53c2.91,1.77,5.82,3.54,8.73,5.31C178.52,217.84,178.63,217.9,178.74,217.96z"/>
	<path class="st2" d="M213.01,234.21c0.44,1.92,0.95,4.11,1.5,6.49c-0.94,0.3-1.85,1.51-3.35,0.23c-0.41-0.35-1.7,0.34-2.67,0.57
		c0.1-0.88,0.21-1.85,0.38-3.39c-0.59,1.07-0.92,1.68-1.32,2.39c-1.24-1.23-3-2.23-3.46-3.66c-0.4-1.25,0.26-3.31,1.19-4.38
		c0.92-1.07,2.76-1.34,4.2-1.97c0.1,0.23,0.2,0.45,0.3,0.68c0.22-0.84,0.44-1.67,0.67-2.51c0.2,0.02,0.4,0.04,0.6,0.05
		c-0.18,2.43-0.35,4.85-0.53,7.28c0.17,0.15,0.33,0.3,0.5,0.45C211.74,235.62,212.47,234.8,213.01,234.21z"/>
	<path class="st2" d="M159.23,190.12c1.09,8.45,1.54,12.3,11.19,21.31c-1.89-0.63-4.21-1.37-6.5-2.18c-0.42-0.15-0.95-0.52-1.08-0.9
		c-1.78-5.41-4.43-10.63-3.87-16.59C159,191.43,159.07,191.1,159.23,190.12z"/>
	<path class="st2" d="M288.36,306.94c0.63,0.12,1.41,0.05,1.88,0.4c2.08,1.56,3.68,6.65,2.92,8.82c-1.08-0.81-2.16-1.62-3.25-2.43
		c0,0,0.17,0.17,0.17,0.17c-1.58-2.33-3.15-4.66-4.73-7c0.07-0.19,0.14-0.39,0.22-0.58c0.93,0.21,1.86,0.43,2.78,0.64
		C288.34,306.95,288.36,306.94,288.36,306.94z"/>
	<path class="st2" d="M201.12,229.38c0.55,2.06,1.55,4.13,1.53,6.19c-0.02,2.11-1.04,4.2-1.74,6.69c-4.3-4.72,0.42-8.73-0.45-12.87
		C200.68,229.39,200.9,229.38,201.12,229.38z"/>
	<path class="st2" d="M256.1,315.39c3.01-4.12,5.89-8.33,9.7-11.83c0.17,0.13,0.34,0.26,0.51,0.39c-3.04,4.04-6.07,8.08-9.11,12.12
		C256.84,315.84,256.47,315.62,256.1,315.39z"/>
	<path class="st2" d="M277.99,305.19c-1.16-0.4-2.27-0.79-3.38-1.17c0.01-0.16,0.02-0.32,0.02-0.47c0.54-0.11,1.08-0.22,1.84-0.37
		c-0.26-0.72-0.51-1.43-0.54-1.51c2.12-0.55,4.24-1.1,6.78-1.76C280.99,301.84,279.55,303.45,277.99,305.19z"/>
	<path class="st2" d="M196.24,237.3c0.43-3.15,0.8-5.83,1.19-8.71C200.29,230.47,199.66,235.47,196.24,237.3z"/>
	<path class="st2" d="M212.14,250.53c1.55,1.54-1.47,4.4,1.52,6.07c0.44-0.66,0.82-1.21,1.29-1.92c0.77,0.81,1.53,1.45,2.07,2.25
		c0.32,0.46,0.56,1.34,0.33,1.71c-0.24,0.37-1.15,0.56-1.68,0.45c-3.1-0.66-4.55-3.05-3.9-6.17
		C211.96,252.04,212.05,251.16,212.14,250.53z"/>
	<path class="st2" d="M288.36,306.94c0,0-0.02,0.01-0.02,0.01c-0.72-3.07-2.93-3.21-5.77-2.11c0.09-0.28,0.17-0.56,0.26-0.84
		c0.42-0.15,0.83-0.35,1.26-0.44c1.24-0.25,2.28-0.15,1.85-2.27c-0.26-1.25,1.3-2.88,2.34-4.92c0,1.44-0.01,2.27,0,3.1
		C288.31,301.97,288.33,304.45,288.36,306.94z"/>
	<path class="st2" d="M280.06,309.54c5.14,3.98,10.33,7.9,13.48,13.82C289.04,318.75,284.55,314.14,280.06,309.54z"/>
	<path class="st2" d="M207.21,83.6c-0.92,0.46-1.37,0.86-1.81,0.85c-0.63-0.01-1.34-0.19-1.87-0.52c-0.75-0.47-1.37-1.14-2.05-1.72
		c1.01-0.18,2.08-0.63,3.02-0.45C205.33,81.92,206.04,82.77,207.21,83.6z"/>
	<path class="st2" d="M188.05,108.67c0-1.52,0-3.05,0-4.88c1.24,0.87,2.11,1.48,3.25,2.28c-0.95,1.04-1.86,2.04-2.77,3.05
		C188.37,108.96,188.21,108.82,188.05,108.67z"/>
	<path class="st2" d="M230.54,440.96c0.61-0.99,1.22-1.98,1.84-2.96c0.29,0.01,0.57,0.02,0.86,0.03c0.27,0.99,1.03,2.26,0.66,2.88
		c-0.38,0.65-1.84,0.68-2.82,0.97C230.9,441.57,230.72,441.27,230.54,440.96z"/>
	<path class="st2" d="M164.45,233.91c-2.14,0.89-4.27,1.78-6.41,2.68c-0.11-0.27-0.23-0.54-0.34-0.81c1.74-1.8,3.91-2.62,6.44-2.63
		C164.24,233.4,164.34,233.65,164.45,233.91z"/>
	<path class="st2" d="M290.08,313.89c0,0-0.17-0.17-0.17-0.17c1.3,1.77,2.6,3.53,3.89,5.3c-0.15,0.14-0.31,0.28-0.46,0.42
		c-2.25-2.36-4.5-4.71-6.74-7.07c0.11-0.14,0.22-0.28,0.33-0.42C287.97,312.6,289.03,313.24,290.08,313.89z"/>
	<path class="st2" d="M187.61,221.27c2.54,1.68,5.08,3.37,7.63,5.05c-0.11,0.17-0.22,0.35-0.34,0.52c-2.57-1.63-5.15-3.27-7.72-4.9
		C187.32,221.71,187.46,221.49,187.61,221.27z"/>
	<path class="st2" d="M291.43,261.02c1.58-0.17,3.16-0.34,5.18-0.56C295.46,261.88,295.46,261.88,291.43,261.02z"/>
	<path class="st2" d="M178.74,217.96c-0.11-0.06-0.22-0.12-0.33-0.18c0.16-0.24,0.43-0.71,0.47-0.69c2.25,1.07,4.48,2.18,6.48,3.78
		C183.15,219.89,180.94,218.93,178.74,217.96z"/>
	<path class="st3" d="M289.1,140.15c-1.33,2.19-2.84,4.29-4.42,6.31c-1.02,1.3-2.07,2.85-4.49,2.22c0.94-1,1.78-1.76,2.48-2.65
		c2.33-3,4.39-6.02,2.79-10.21c-0.53-1.4-0.09-3.14-0.37-4.67c-0.15-0.82-0.76-1.7-1.42-2.23c-0.44-0.35-1.34-0.11-2.03-0.14
		c0.15,0.64,0.4,1.28,0.42,1.92c0.12,2.49,0.55,5.06,0.12,7.47c-0.48,2.72-1.78,5.3-2.7,7.95c-0.08,0.21,0.02,0.48,0.04,0.74
		c-0.22-0.11-0.45-0.22-0.68-0.33c-0.23-0.1-0.46-0.21-0.69-0.31c-0.25-0.12-0.51-0.24-0.75-0.37c-0.16-0.09-0.31-0.18-0.46-0.27
		c-0.42-0.27-0.78-0.58-1.03-0.97c-0.06-0.09-0.12-0.19-0.16-0.29c-0.04-0.07-0.07-0.16-0.09-0.24c-0.02-0.04-0.03-0.1-0.04-0.14
		c-0.03-0.09-0.05-0.18-0.06-0.28c-0.02-0.1-0.03-0.21-0.03-0.33v-0.07c0-0.1,0.01-0.21,0.02-0.32c0.01-0.09,0.02-0.19,0.04-0.29
		c0-0.05,0.01-0.09,0.03-0.14c0.01-0.08,0.03-0.17,0.06-0.27c0.03-0.11,0.07-0.23,0.11-0.35c0-0.02,0.01-0.05,0.02-0.08
		c-0.02,0.02-0.03,0.04-0.03,0.04c1.25-4.64,2.54-9.26,3.73-13.91c0.38-1.48,0.93-2.42,2.58-2.92c1.71-0.52,3.22-1.68,4.84-2.52
		c3.42-1.79,5.66-0.44,6.07,3.54C293.54,131.26,291.72,135.84,289.1,140.15z"/>
	<path class="st3" d="M243.53,131.25c-0.81,1.14-1.63,2.28-2.56,3.59c-1.9-1.96-2.44-4.63-1.6-7.72
		C242.34,126.89,242.18,129.83,243.53,131.25z"/>
	<path d="M241.46,246.39c-9.41-0.03-14.05-6.94-20.28-11.08C227.73,238.89,234.29,242.47,241.46,246.39z"/>
</g>
<path class="st4" d="M243.53,131.25c-0.81,1.14-1.63,2.28-2.56,3.59c-1.9-1.96-2.44-4.63-1.6-7.72
	C242.34,126.89,242.18,129.83,243.53,131.25z"/>
<path class="st4" d="M275.81,141.81c-0.02,0.02-0.03,0.04-0.03,0.04c1.25-4.64,2.54-9.26,3.73-13.91c0.38-1.48,0.93-2.42,2.58-2.92
	c1.71-0.52,3.22-1.68,4.84-2.52c3.42-1.79,5.66-0.44,6.07,3.54c0.54,5.22-1.28,9.8-3.9,14.11c-1.33,2.19-2.84,4.29-4.42,6.31
	c-1.02,1.3-2.07,2.85-4.49,2.22c0.94-1,1.78-1.76,2.48-2.65c2.33-3,4.39-6.02,2.79-10.21c-0.53-1.4-0.09-3.14-0.37-4.67
	c-0.15-0.82-0.76-1.7-1.42-2.23c-0.44-0.35-1.34-0.11-2.03-0.14c0.15,0.64,0.4,1.28,0.42,1.92c0.12,2.49,0.55,5.06,0.12,7.47
	c-0.48,2.72-1.78,5.3-2.7,7.95c-0.08,0.21,0.02,0.48,0.04,0.74c-0.22-0.11-0.45-0.22-0.68-0.33c-0.23-0.1-0.46-0.2-0.69-0.31
	c-0.25-0.12-0.51-0.24-0.75-0.37c-0.16-0.09-0.31-0.18-0.46-0.27c-0.42-0.27-0.78-0.58-1.03-0.97c-0.06-0.09-0.12-0.19-0.16-0.29
	c-0.04-0.07-0.07-0.16-0.09-0.24c-0.02-0.04-0.03-0.1-0.04-0.14c-0.03-0.09-0.05-0.18-0.06-0.28c-0.02-0.1-0.03-0.21-0.03-0.33
	v-0.07c0-0.1,0.01-0.21,0.02-0.32c0.01-0.09,0.02-0.19,0.04-0.29c0-0.05,0.01-0.09,0.03-0.14c0.01-0.08,0.03-0.17,0.06-0.27
	c0.03-0.11,0.07-0.23,0.11-0.35C275.79,141.87,275.8,141.84,275.81,141.81z"/>
<path class="st4" d="M434.26,359.55c-24.79,28.54-56.14,51.87-91.88,67.97c-18.48,8.32-38.13,14.71-58.66,18.89
	c-3.81,0.78-7.66,1.48-11.53,2.1c-6.01,0.97-12.08,1.74-18.22,2.32c-0.43,0.97-1.09,2.04-1.84,2.26c-2.44,0.72-4.86,0-6.71-1.58
	c-1.85,0.13-3.7,0.23-5.55,0.31c-4.36,0.2-8.74,0.3-13.14,0.3c-27,0-53.07-3.75-77.64-10.74c-17.04-4.83-33.36-11.22-48.78-19
	C59.3,401.73,24.7,371.32,0,334.48c1.26-3.24,2.53-6.48,3.81-9.72c0.89-2.24,1.64-4.6,2.94-6.58c4.14-6.3,7.27-12.97,8.58-20.45
	c0.25-1.44,0.95-2.79,1.47-4.18c0.57-1.53,1.22-3.04,1.74-4.59c0.78-2.36,1.39-4.78,2.23-7.11c0.7-1.92,1.84-3.69,2.41-5.64
	c0.87-2.99,1.11-6.17,2.16-9.08c2.08-5.77,4.59-11.39,6.8-17.12c0.78-2.04,1.29-4.21,1.79-6.35c0.31-1.31,0.18-2.73,0.55-4.02
	c0.73-2.53,2-4.96,2.43-7.53c0.47-2.87,0.05-5.88,0.41-8.78c0.2-1.58,0.81-3.85,1.94-4.43c2.67-1.36,4.07-3.79,5.81-5.84
	c1.89-2.23,3.94-2.66,6.59-2.52c1.31,0.08,2.76-0.31,3.96-0.88c2.9-1.39,5.59-3.25,8.54-4.5c8.38-3.54,16.85-6.86,25.27-10.29
	c2.13-0.86,4.15-2.04,6.34-2.67c8.97-2.58,18.23-2.21,27.43-2.46c0.4-0.02,0.8,0.24,1.21,0.26c3.96,0.18,7.96,0.57,11.65-1.42
	c4.1-2.19,8.09-4.61,12.3-6.57c3.67-1.7,7.59-2.9,11.73-4.45c0.47-4.55,0.58-9.66,1.62-14.57c1.01-4.78,0.07-9.21-0.71-13.79
	c-0.92-5.4-1.62-10.84-2.12-16.29c-0.21-2.34-0.76-3.41-3.34-3.39c-4.42,0.04-6.88-1.85-7.92-6.1c-1.67-6.86-3.3-13.75-4.53-20.7
	c-0.44-2.5-0.15-5.36,0.63-7.8c1.32-4.18,3.76-5.33,8.06-4.7c2.2,0.33,4.4,0.63,6.6,0.95c1.58,0.23,1.84-0.39,1.88-1.97
	c0.2-8.13,0.47-16.27,0.99-24.39c0.33-5.24,1.09-10.46,1.77-15.68c0.26-2,0.67-4.06,3.23-4.6c-1.54-1.59-1.25-2.57,0.19-3.04
	c0.12-1.3,0.22-2.46,0.32-3.61c0.29-0.56-0.19-1.39,0.05-1.85c1.14-2.15,2.38-4.27,3.78-6.27c1.43-2.04,3.07-3.92,5.06-6.43
	c-1.76-0.16-2.7-0.25-4.36-0.4c3.85-2.83,6.99-5.86,10.72-7.67c3.79-1.85,8.17-2.48,12.56-3.72c0.07-0.26,0.27-0.99,0.36-1.33
	c1.45,0.3,2.67,0.78,3.85,0.7c0.53-0.04,1.19-1.11,1.45-1.84c1.03-2.95,2.73-5.01,6.03-5.48c1.97-0.29,3.88-1.05,5.85-1.19
	c4.35-0.31,8.25-3.7,12.94-1.82c0.65,0.26,1.6-0.27,2.42-0.38c0.64-0.09,1.42-0.34,1.92-0.09c3.49,1.73,7.19,2.03,10.99,1.91
	c0.84-0.02,1.68,0.32,2.52,0.5c-1.13,0.71-2.94,1.42-3.17,1.08c-1.6-2.38-3.36-0.51-5.1-0.39c1.32,0.85,2.91,2.05,4.16,1.77
	c5.78-1.31,11.49-0.39,17.21,0.11c4.16,0.37,7.42,2.82,10.93,4.84c3.7,2.14,7.54,3.91,9.71,7.88c0.21,0.39,1.04,0.42,1.56,0.65
	c3.17,1.44,6.88,2.27,9.38,4.46c5.43,4.78,6.67,12,9.12,18.46c0.17,0.44,0.1,1,0.04,1.48c-0.35,2.73-1.49,5.44,0,8.19
	c0.18,0.33-0.3,0.96-0.21,1.4c0.26,1.29,0.31,3.36,1.06,3.68c4.44,1.93,1.7,6.29,3.36,9.07c0.05,0.1-0.48,0.44-0.54,0.71
	c-0.11,0.55-0.3,1.45-0.06,1.62c1.86,1.27,0.42,2.7,0.18,3.95c-0.35,1.86-1.09,3.65-1.66,5.48c-0.92,2.96-2.03,5.88-2.71,8.89
	c-0.63,2.8-3.17,5.12-2.04,8.38c0.17,0.46-0.33,1.2-0.63,1.76c-0.44,0.79-1.16,1.47-1.43,2.3c-1.06,3.23-2,6.5-2.95,9.76
	c-1.06,3.67-2.09,7.35-3.23,11.38c-1.54,0.5-4.54-0.46-5.24,3.03c-0.18-0.54-0.3-0.94-0.27-1.34c0.6-6.53,1.13-13.07,1.87-19.59
	c0.57-5.1,1.45-10.14-0.68-15.13c-0.41-0.93-0.26-2.11-0.35-3.18c-0.36-4.57,0.54-9.29-1.67-13.63c-0.75-1.46-1.64-2.87-2.18-4.4
	c-0.79-2.29-1.44-4.48-3.88-5.76c-1.38-0.72-2.31-2.24-3.54-3.28c-2.35-2-4.33-2.08-7.17-0.6c-0.68,0.36-1.65,0.66-2.34,0.46
	c-3.32-0.92-6.59-2-9.87-3.08c-1.09-0.36-2.25-0.72-3.18-1.37c-3.03-2.12-4.53-2.1-6.83,0.49c-1.76-1.53-3.53-3.07-5.39-4.69
	c-2.5,3.32-0.32,7.05-1.29,10.71c-0.77-0.81-1.22-1.28-1.48-1.55c-1.3,1.83-2.5,3.53-3.55,5.02c-1.55-0.39-2.9-1.08-4.18-0.96
	c-1.3,0.12-2.53,1.04-4.01,1.71c-0.18-0.99-0.3-1.65-0.48-2.65c-2.5,0.87-4.83,1.6-7.08,2.54c-0.36,0.15-0.44,1.2-0.47,1.85
	c-0.07,1.36-0.04,2.72,0,4.08c0.01,0.58,0.16,1.15,0.25,1.73c0.6-0.11,1.26-0.09,1.79-0.36c0.72-0.36,1.33-0.94,1.73-1.23
	c0.9,1.4,1.55,3.37,2.29,3.4c2.93,0.13,3.69,1.91,4.29,4.2c0.22,0.86,0.7,1.71,1.25,2.41c0.28,0.35,0.99,0.49,1.49,0.47
	c0.17-0.01,0.39-0.79,0.43-1.23c0.04-0.43-0.11-0.88-0.16-1.21c1.33,0.28,2.52,0.48,3.67,0.79c0.35,0.1,0.77,0.48,0.86,0.82
	c0.48,1.7,0.83,3.43,1.29,5.14c0.15,0.55,0.5,1.05,0.76,1.57c0.68-0.35,1.57-0.54,2-1.08c0.54-0.7,0.7-1.68,1.02-2.52
	c1.48,0.36,2.34,2.93,3.69,0.6c0.71-1.24,1.03-2.72,1.55-4.17c0.18,0,0.43-0.04,0.67,0.01c0.32,0.07,0.66,0.15,0.93,0.33
	c4.48,3.05,9.68,3.6,14.78,3.46c7.22-0.19,11.54,3.9,15.95,9.15c-2.54,0.5-2.9,3.78-5.77,3.2c0.38-0.21,0.77-0.42,1.25-0.69
	c-0.81-0.25-1.46-0.46-2.66-0.83c1.25-0.36,1.94-0.55,2.63-0.74c-0.04-0.21-0.08-0.41-0.11-0.61c-3.35,0.32-6.69,0.83-10.04,0.88
	c-2.2,0.04-2.56,1.62-2.93,2.95c-0.14,0.5,1.16,1.55,1.95,2.15c2.76,2.09,5.78,3.88,8.31,6.2c1.59,1.45,2.6,3.6,3.59,5.57
	c0.16,0.33-0.97,1.67-1.74,1.99c-0.54,0.22-1.49-0.45-2.24-0.79c-3.36-1.51-6.79-2.32-10.43-1.63c-0.11,0.29-0.22,0.59-0.33,0.89
	c1.82,0.85,3.64,1.7,6.11,2.86c-3.1,0.73-5.59,1.42-8.12,1.88c-1.7,0.31-4.07,1.09-5.07,0.3c-2.67-2.12-4.85-4.91-7.06-7.56
	c-0.99-1.19-1.65-2.66-2.34-4.07c-0.5-1.01-1.18-2.12-1.14-3.17c0.1-2.7-0.64-5.03-2.09-7.26c-0.61-0.93-0.71-2.18-1.28-3.14
	c-0.52-0.89-1.26-1.73-2.1-2.3c-0.25-0.18-1.26,0.5-1.75,0.97c-3.08,2.88-3.44,7.12-5.19,10.68c-1,2.03-1.5,4.31-2.25,6.47
	c-0.93,2.69-1.91,5.36-2.82,8.05c-0.21,0.62-0.37,1.3-0.33,1.94c0.09,1.45,0.39,2.88,0.48,4.33c0.23,3.35,4.11,7.4,7.28,7.01
	c2.41-0.3,3.56,0.82,4.61,2.52c0.69,1.13,1.36,2.29,1.95,3.47c1.06,2.09,0.61,3.46-1.3,4.22c-2.01,0.8-3.8-0.02-4.5-1.96
	c-0.18-0.47-0.7-0.83-1.08-1.22c-2.19-2.3-4.32,0.08-6.49-0.1c0.32,6.71,0.03,8.07-1.99,8.83c-0.2-1.76-0.34-3.47-0.6-5.16
	c-0.11-0.74-0.43-1.45-0.65-2.17c-0.81,0.33-1.84,0.46-2.37,1.05c-0.68,0.75-1.22,1.82-1.37,2.83c-0.47,3.01,1.67,5.58,4.75,6.36
	c1.49,0.37,2.94,1.08,4.25,1.9c4.17,2.62,8.26,5.38,12.42,8.05c0.46,0.29,1.12,0.45,1.66,0.4c1.41-0.11,2.81-0.37,3.79-0.51
	c1.06,2.12,2.58,3.86,2.63,5.63c0.05,1.87-1.31,3.77-2.1,5.77c0.69-0.26,1.28-0.47,2.23-0.82c-0.32,3.07,0.95,5.15,3.54,6.47
	c-0.8,0.96-1.34,1.62-1.88,2.27c3.8,3.14,3.88,3.14,8.21,0.32c0.21-0.13,0.46-0.19,0.67-0.32c2.53-1.49,5.06-2.98,7.58-4.49
	c0.13-0.07,0.21-0.26,0.27-0.41c0.98-2.35,1.94-4.71,2.94-7.05c0.22-0.5,0.53-1.24,0.91-1.32c2.44-0.5,2.82-2.55,3.34-4.38
	c0.44-1.55,0.17-3.36,0.82-4.78c1.79-3.94,3.89-7.73,5.87-11.58c0.19,0.07,0.38,0.13,0.57,0.2c0.05,0.63,0.09,1.27,0.14,1.91
	c-0.94,2.03-1.85,4.09-2.88,6.08c-2.12,4.16-1.56,6.02,2.55,8.28c0.79,0.43,1.48,1.03,2.22,1.55c-0.78,0.56-1.34,0.68-1.84,0.54
	c-2.56-0.72-4.56,0.01-6.05,2.21c-0.69,1.02-1.3,2.16-2.17,3.01c-2.24,2.19-1.65,5.1,1.21,6.31c2.12,0.89,4.23,1.94,6.12,3.24
	c3.89,2.68,7.79,5.03,12.78,4.68c1.22-0.09,2.56,0.06,3.7,0.47c7.01,2.57,14.39,2.39,21.65,2.84c9.93,0.61,19.95,0.21,29.53,3.57
	c3.35,1.18,6.77,2.19,10.04,3.56c3.34,1.39,6.03,4.6,10.24,3.38c0.26-0.08,0.62,0.18,0.94,0.27c4.15,1.23,5.93,4.77,7.01,8.31
	c1.44,4.73,2.02,9.67,4.77,14.02c1.41,2.21,1.33,4.73-0.95,6.73c-1.19,1.05-1.4,2.32-0.61,3.82c2.73,5.13,5.17,10.44,8.13,15.43
	c2.13,3.59,4.13,7,4.94,11.28c1.26,6.67,3.34,13.18,5.2,19.73c0.2,0.74,1.1,1.64,1.82,1.8c2.58,0.58,2.98,1.02,1.95,3.45
	c-0.77,1.81-0.41,2.97,1.38,3.86c0.82,0.41,2.02,1.29,1.99,1.92c-0.12,2.8,1.82,3.66,3.75,4.71c4.51,2.46,7.5,5.88,7.7,11.37
	c0.06,1.66,0.91,3.33,1.59,4.91c0.91,2.13,2.3,4.09,2.96,6.29c1.12,3.73,1.53,7.68,2.76,11.37c3.3,9.88,5.38,20.19,11.79,28.94
	C432.2,352.77,433.59,356.07,434.26,359.55z"/>
</svg>
